<svg xmlns="http://www.w3.org/2000/svg" viewBox="0 0 512 512" width="512" height="512"><path d="M467 346H165c-24.814 0-45-20.186-45-45V91c0-24.814 20.186-45 45-45h302c24.814 0 45 20.186 45 45v210c0 24.814-20.186 45-45 45z" fill="#a4d9f5"/><path d="M407 406H105c-24.814 0-45-20.186-45-45V151c0-24.814 20.186-45 45-45h302c24.814 0 45 20.186 45 45v210c0 24.814-20.186 45-45 45z" fill="#b758ce"/><path d="M375.872 178.426l-45.714 15.862L220.983 304.49l18.804 11.301-2.914 27.085 96.173 96.171 43.759 13.758C384.954 444.657 390 433.407 390 421V211c0-12.841-5.471-24.37-14.128-32.574z" fill="#fe9923"/><path d="M14.128 178.426C5.471 186.63 0 198.159 0 211v210c0 12.407 5.046 23.657 13.195 31.805l39.619-9.618 95.937-94.062 1.462-33.334 17.466-12.652L58.821 193.257l-44.693-14.831z" fill="#fea832"/><path d="M216.313 309.487c-11.741 11.849-30.886 11.849-42.627 0l-23.474 6.304L13.195 452.805C21.343 460.954 32.593 466 45 466h300c12.407 0 23.657-5.046 31.805-13.195L239.788 315.791l-23.475-6.304z" fill="#fc3"/><path d="M216.313 339.487l159.558-161.061C367.804 170.774 356.975 166 345 166H45c-11.975 0-22.804 4.774-30.872 12.426l159.558 161.061c11.741 11.849 30.887 11.849 42.627 0z" fill="#fedb41"/></svg>