<svg width="24" height="24" xmlns="http://www.w3.org/2000/svg">

 <g>
  <title>background</title>
  <rect fill="none" id="canvas_background" height="402" width="582" y="-1" x="-1"/>
 </g>
 <g>
  <title>Layer 1</title>
  <path stroke="null" id="svg_1" d="m23.874996,23.937496l-4.774994,0l0,-4.787494l4.774994,0l0,4.787494m0,-9.574988l-4.774994,0l0,-4.787494l4.774994,0l0,4.787494m-9.549989,9.574988l-4.774994,0l0,-4.787494l4.774994,0l0,4.787494m0,-9.574988l-4.774994,0l0,-4.787494l4.774994,0l0,4.787494m-9.549989,9.574988l-4.774994,0l0,-4.787494l4.774994,0l0,4.787494m19.099978,-19.149977l-4.774994,0l0,-4.787494l4.774994,0l0,4.787494z" fill="#fff"/>
 </g>
</svg>