<svg xmlns="http://www.w3.org/2000/svg" viewBox="0 0 118.28 131.53" width="118" height="132"><defs><style>.cls-1{fill:#ea8642}.cls-2{fill:#fff}.cls-3{fill:#54bbd3}.cls-4{fill:#38332d}</style></defs><g id="Слой_2" data-name="Слой 2"><g id="Objects"><path class="cls-1" d="M38.57 102.82s18.24 4.19 43.56.87c0 0 8.07 2 20.41 8.07 5.81 2.86 11.36 7.77 15.74 19.77H1.12a31.64 31.64 0 0 1 13.06-18.63c6.27-4.04 21.44-8.16 24.39-10.08z"/><path class="cls-2" d="M14.35 112.76l-.17.11a28.51 28.51 0 0 0-5 4.14h100.68a25.57 25.57 0 0 0-5.42-4.25zM116.72 127.64a47.23 47.23 0 0 0-2.4-4.68H4.62a32.84 32.84 0 0 0-2.28 4.68z"/><path class="cls-3" d="M59.14.05c-34.44 1.66-55 25.75-31.22 107 0 0 12.75-4.5 15.75-9.25 3.45-5.45 3-19.75 3-19.75-4.78-4-7.06-10.12-9.31-15.7a42.19 42.19 0 0 1-1.7-4.81c-3.76.22-6.59-4.68-7.22-7.91-1.44-7.58 3.2-7.63 6.15-6.77a25.2 25.2 0 0 1 2.15-6.81c1.47-3 4.47-3.53 7-2.51 2.7-4.79 8.45-7.94 14.27-8.39a16.13 16.13 0 0 1 15 7 15.79 15.79 0 0 1 2.53 3.38A6.25 6.25 0 0 1 82 38.34a11 11 0 0 1 1.38 4.53c3-.79 7.52-.67 6.07 6.83-.61 3.14-3.35 7.93-6.9 8a22.09 22.09 0 0 1-2.25 9c-1.94 3.8-4.13 8.55-8.08 11.55 0 0-.5 16.75 4.75 21 3.46 2.8 15.5 8.75 15.5 8.75S116.17-2.7 59.14.05z"/><path class="cls-4" d="M53.65 79.55c-7.81-1.49-12.57-8.86-15-15.87a69.23 69.23 0 0 1-3.25-22.47c0-1-1.52-.8-1.52.18a70.5 70.5 0 0 0 3.6 23.55c1.7 4.81 4.41 9.44 8.36 12.47-.07 3.48.14 7-.16 10.41a19.28 19.28 0 0 1-4.55 10.92c-4.41 5.18-11.29 6.88-17.5 8.89s-11.8 4.78-16.18 9.75A35.16 35.16 0 0 0 0 131.53h1.45a36.05 36.05 0 0 1 3.22-7.79 29.71 29.71 0 0 1 14.85-13.16 97.06 97.06 0 0 1 12.5-4.3C44.75 103 46.84 91.9 47.17 86.52c.17-2.71 0-5.42.06-8.14a19.46 19.46 0 0 0 6.19 2.69c.98.19 1.2-1.33.23-1.52zM110.83 117.38c-4.38-5-10-7.74-16.18-9.75s-13.08-3.71-17.5-8.89a19.27 19.27 0 0 1-4.54-10.92c-.27-3.07-.14-6.15-.15-9.24C77.39 75.15 80.35 69.05 82 63a72.91 72.91 0 0 0 1.51-28.37c-.13-1-1.61-.56-1.48.41a73 73 0 0 1-1.26 26.59c-2 8.39-6.73 18-16.42 18.58-1 .06-1 1.59 0 1.54a15.94 15.94 0 0 0 6.74-2.31c0 2.35-.09 4.71.06 7.06.7 11.33 6.08 17.32 16.53 20.43 3.8 1.14 7.52 2.15 11.13 3.63a29.68 29.68 0 0 1 14.84 13.16 35.56 35.56 0 0 1 3.22 7.79h1.45a35 35 0 0 0-7.49-14.13z"/><path class="cls-1" d="M76.77 53.79c4.76 3.05-4.77 8.36-7.77 4.88s5.09-6.6 7.77-4.88zM42.33 54.61c-4.93 3.16 5 8.66 8 5.06s-5.22-6.84-8-5.06z"/><path class="cls-4" d="M53.67 50.06C50.9 45 42.41 44.83 38.91 49.2c-.58.71.43 1.74 1 1a7.54 7.54 0 0 1 4.27-2.49c-.5 1.54.18 3.51 1.9 3.85 1.9.37 3-1.55 2.58-3.2a2.59 2.59 0 0 0-.22-.57 6.29 6.29 0 0 1 4 3c.43.81 1.67.09 1.23-.73z"/><path class="cls-4" d="M60.54 63.09c-1.65.06-3.72 0-3.88-2a20 20 0 0 1 .67-4.61 17.51 17.51 0 0 0-.62-8.35c-2.35-7.35-12.09-8.36-17.82-4.39-.75.52 0 1.77.73 1.24 3.32-2.3 8.67-3.1 12.17-.89 5.13 3.23 4.11 10.33 3.38 15.43-.55 3.82 1.75 5.29 5.37 5.17 1.03-.04 1.03-1.64 0-1.6zM62.79 50.06c2.78-5.09 11.27-5.23 14.77-.86.57.71-.44 1.74-1 1a7.48 7.48 0 0 0-4.26-2.49c.49 1.54-.19 3.51-1.91 3.85-1.89.37-3-1.55-2.57-3.2a2.58 2.58 0 0 1 .18-.56 6.27 6.27 0 0 0-4 3c-.41.8-1.65.08-1.21-.74z"/><path class="cls-4" d="M61.92 45.43c3.85-5.1 11-5.16 16-1.69.76.52 0 1.77-.72 1.24-4.29-3-10.7-3.32-14.09 1.18-.5.73-1.75.01-1.19-.73zM64.44 68.44a12.72 12.72 0 0 1-10.61-.27c-.9-.48-1.83.82-.92 1.31a14.43 14.43 0 0 0 12.22.4c.96-.38.26-1.82-.69-1.44z"/><path class="cls-3" d="M33.88 41.39S54.76 37.68 59 27.2c0 0 6 11.28 25.09 13.29 0 0 15.23-37.59-25.29-37.66-40.96-.07-24.92 38.56-24.92 38.56z"/></g></g></svg>