<svg xmlns="http://www.w3.org/2000/svg" viewBox="0 0 128.55 139.68" width="129" height="140"><defs><style>.cls-3{fill:#38332d}</style></defs><g id="Слой_2" data-name="Слой 2"><g id="Objects"><path d="M1.66 139.49h124.85s-2.06-13-19.59-19.68c0 0-21.42-7.5-24.31-11.92 0 0-5-8.81-5.2-12.11a171.84 171.84 0 0 1-27.54-.49s-2.64 11.93-8.17 16.33-.33.18-.33.18-41.2 13.69-39.71 27.69z" fill="#54bbd3"/><path d="M38.14 49.34c1.76-6 1.69-21.3 9.46-23.25 3.24-.81 14.28 8.18 29.57 0 6.08-3.23 12.21 17.81 13.34 20.8l.5-2.72 2.85-2.12S105.75-.74 63.22 0 32.81 42.33 32.81 42.33s4.71-.69 5.33 7.01z" fill="#ea8642"/><path class="cls-3" d="M121.43 127.22c-4.7-5.35-12.25-8.36-18.93-10.53-11.11-3.62-22.5-7.91-23.68-21.33-.28-3.31-.13-6.64-.14-10 5.31-3.68 8.5-10.24 10.25-16.73a76.86 76.86 0 0 0 2.19-25.23c-.52.22-1.06.42-1.6.59A77.83 77.83 0 0 1 87.6 67.2c-2.18 9-7.26 18.94-17.68 19.53-.2 0-.21 1.66 0 1.64a16.91 16.91 0 0 0 7.25-2c0 2.5-.1 5 0 7.51a1.06 1.06 0 0 0-.23.05c-7.44 3.3-17.61 1.89-25.38.55a1 1 0 0 0-.17 0v-.56c.18-2.91.06-5.83.07-8.75a18.14 18.14 0 0 0 6.22 2.47c1 .2 1.3-1.43.26-1.63-8.31-1.66-12.94-9.15-15.58-16.7s-3.49-16.07-3.46-24.17c0-1.06-1.64-.86-1.64.19a75.61 75.61 0 0 0 3.83 25.34c1.82 5.18 4.73 10.15 9 13.42-.07 3.74.15 7.48-.18 11.2A20.78 20.78 0 0 1 45 107c-4.76 5.56-12.16 7.38-18.83 9.53s-14.26 5.16-19 10.49A39.41 39.41 0 0 0 0 139.48h1.59a51.29 51.29 0 0 1 2.57-5.6c3.63-6.48 10.67-11.33 17.54-14.14 6.56-2.68 13.69-3.92 19.67-7.89l.33-.22a22.18 22.18 0 0 0 4.68-3.79 1.11 1.11 0 0 0 .19.09 73.84 73.84 0 0 0 36 0 18.24 18.24 0 0 0 2.68 2.59c6.11 4.8 14.57 6.44 21.63 9.36 6.85 2.83 13.88 7.72 17.49 14.21a50.17 50.17 0 0 1 2.55 5.61h1.59a39.5 39.5 0 0 0-7.08-12.48zm-73.72-21a20.52 20.52 0 0 0 3.54-9.87c8.21 1.41 18.22 2.71 26.16-.55a24 24 0 0 0 3.91 10.44 71.52 71.52 0 0 1-33.61-.03z"/><path class="cls-3" d="M84.55 44.26c-4.61-3.06-11-2.77-15.71 0a1.07 1.07 0 0 0 1.07 1.86c4.07-2.38 9.56-2.63 13.56 0 1.15.75 2.23-1.12 1.08-1.86zM83.32 50.83c-4.4-4.18-9.41-3.69-14.72-1.56-.85.34-.5 1.72.36 1.38A23.67 23.67 0 0 1 73 49.38a4.12 4.12 0 0 0 .14 1.74 3.08 3.08 0 0 0 1.4 1.6 2.22 2.22 0 0 0 2.69-.08 3.44 3.44 0 0 0 1-3.2 9.57 9.57 0 0 1 4.08 2.39c.69.63 1.69-.36 1.01-1zM43.39 51.73a9.55 9.55 0 0 1 4.09-2.35 3.43 3.43 0 0 0 .94 3.2 2.19 2.19 0 0 0 2.68.11 3.08 3.08 0 0 0 1.43-1.59 4.1 4.1 0 0 0 .14-1.74 24.52 24.52 0 0 1 4.06 1.31c.85.35 1.21-1 .37-1.38-5.29-2.17-10.3-2.71-14.73 1.44-.67.63.34 1.63 1.02 1zM73.72 72.42a21.27 21.27 0 0 1-17.78-1c-.9-.45-1.7.88-.81 1.33a22.79 22.79 0 0 0 19 1.17c.87-.33.54-1.84-.41-1.5zM90.67 43.63c-.79.6 0 1.95.78 1.34 4.79-3.66 5.76 1.61 5.66 5.51-.11 4.64-2.18 10.13-7.37 10.66-1 .11-1 1.66 0 1.56 6.8-.7 9-7.62 8.94-13.65-.07-5.31-2.99-9.26-8.01-5.42zM38 43.55c.78.6 0 2-.79 1.34-4.77-3.68-5.75 1.58-5.67 5.49.1 4.64 2.15 10.13 7.34 10.68 1 .11 1 1.66 0 1.56-6.8-.72-9-7.65-8.9-13.68.02-5.31 2.96-9.25 8.02-5.39z"/><path class="cls-3" d="M66.83 65.7c-6.62-.8-4.69-5.79-3.91-10.53a12.5 12.5 0 0 0-1.66-9.27C57.44 40 47.87 40 42.47 43.25a1 1 0 0 0 1 1.67 13.69 13.69 0 0 1 14.08.08c4.92 2.91 3.69 8.82 2.81 13.4-1.07 5.56.69 8.55 6.47 9.25 1.23.14 1.22-1.8 0-1.95z"/></g></g></svg>